<?xml version="1.0" standalone="no"?>
<svg viewBox="0 0 200 200" xmlns="http://www.w3.org/2000/svg">
  <path fill="#FF0066" d="M42.4,-75.3C54,-66.6,61.9,-53.5,67.5,-40.2C73,-26.9,76.3,-13.4,76.3,0C76.3,13.4,73,26.8,66.2,38.1C59.5,49.4,49.3,58.6,37.7,67.7C26.1,76.9,13.1,85.9,-0.9,87.5C-14.8,89.1,-29.7,83.1,-43,75C-56.4,66.8,-68.2,56.5,-74.8,43.7C-81.3,30.8,-82.7,15.4,-82.8,-0.1C-82.9,-15.5,-81.8,-31.1,-74.3,-42.2C-66.7,-53.4,-52.7,-60.2,-39.3,-67.8C-25.8,-75.3,-12.9,-83.6,1.2,-85.8C15.4,-87.9,30.7,-83.9,42.4,-75.3Z" transform="translate(100 100)" />
</svg>
